<svg xmlns="http://www.w3.org/2000/svg" viewBox="0 0 100 100" fill="none">
  <!-- App icon + favicon source (opaque background so iconutil can generate .icns) -->
  <defs>
    <linearGradient id="bg" x1="0" y1="0" x2="0" y2="1">
      <stop offset="0" stop-color="#0D2137"/>
      <stop offset="1" stop-color="#050D14"/>
    </linearGradient>
  </defs>

  <rect x="6" y="6" width="88" height="88" rx="22" fill="url(#bg)"/>
  <rect x="6" y="6" width="88" height="88" rx="22" fill="none" stroke="#D4AF37" stroke-width="2"/>

  <!-- Poseidon's trident -->
  <path d="M50 84V28" stroke="#F5F5F5" stroke-width="6" stroke-linecap="round"/>
  <path d="M50 28V14" stroke="#F5F5F5" stroke-width="6" stroke-linecap="round"/>
  <path d="M50 32C46 24 42 19 36 16V14" stroke="#F5F5F5" stroke-width="6" stroke-linecap="round" stroke-linejoin="round"/>
  <path d="M50 32C54 24 58 19 64 16V14" stroke="#F5F5F5" stroke-width="6" stroke-linecap="round" stroke-linejoin="round"/>

  <path d="M50 8L44 18L50 15L56 18Z" fill="#D4AF37"/>
  <path d="M36 10L32 18L36 16L40 18Z" fill="#D4AF37"/>
  <path d="M64 10L60 18L64 16L68 18Z" fill="#D4AF37"/>

  <path d="M36 20L29 16" stroke="#F5F5F5" stroke-width="5" stroke-linecap="round"/>
  <path d="M64 20L71 16" stroke="#F5F5F5" stroke-width="5" stroke-linecap="round"/>
  <path d="M42 84H58" stroke="#F5F5F5" stroke-width="6" stroke-linecap="round"/>
</svg>
